<svg xmlns="http://www.w3.org/2000/svg" xml:space="preserve" viewBox="0 0 185 195"><path fill="#361061" d="M18 1c5.355 0 10.71 0 16.674.371 1.867.646 3.188.755 4.369 1.221 9.682 3.822 19.337 7.71 29.075 11.899 3.208 2.448 6.342 4.575 9.689 6.979 6.527 5.528 12.843 10.78 19.98 16.715-1.373-6.742-2.548-12.509-3.274-18.352 4.604.343 8.761.763 13.04 1.536 12.367 20.013 23.664 40.141 30.865 62.304.253.78.67 1.524 1.11 2.222 4.965 7.87 10.022 15.682 14.907 23.6 5.577 9.039 11.005 18.17 16.587 27.622 1.665 3.544 3.24 6.726 4.886 10.318.463 2.306.544 4.342 1.313 6.07 1.718 3.858.843 7.022-2.038 9.762-1.528 1.452-3.138 2.936-4.968 3.932-4.984 2.711-8.921 8.002-15.9 6.345-2.874-1.47-5.49-2.68-8.344-4.127-5.293-3.026-10.235-6.052-15.431-8.549-6.671-3.205-10.205-1.975-12.762 5.034-2.362 6.474-3.743 13.306-5.945 20.123-26.509 5.457-50.132.204-70.93-16.967 1.194-3.896 1.956-7.529 3.428-10.847 7.876-17.763 14.884-36.077 30.3-49.25.948-.81.811-2.889 1.18-4.377-1.345-.303-2.728-.98-4.028-.847-7.855.802-14.463-2.195-17.862-8.318-3.9-7.029-3.183-15.197 1.469-20.822 7.793 2.464 15.353 4.82 22.886 7.26 1.889.613 3.64 1.668 5.544 2.209 1.956.556 4.021.734 6.039 1.077-.289-1.952-.092-4.15-.94-5.817-9.503-18.68-23.076-34.079-39.05-47.914-2.687-1.985-5.197-3.701-7.85-5.733-5.275-4.488-10.804-8.271-15.405-12.964C23.277 9.312 16.484 8.058 18 1m107.157 112.143c-1.293-.715-2.583-1.998-3.882-2.007-1.767-.013-3.541.948-5.312 1.492.69 1.38 1.026 3.408 2.139 4.018 3.541 1.94 7.372 3.353 11.09 4.969l1.142-1.797c-1.534-2.064-3.068-4.128-5.177-6.675"/><path fill="#2fbbb5" d="M146.209 169.654c2.616 1.21 5.232 2.42 7.852 4.178-5.053 4.097-9.721 8.512-15.255 11.003-9.655 4.346-19.842 7.507-29.806 11.165-10.02 0-20.042 0-30.715-.354-5.07-1.412-9.583-2.18-13.889-3.583-15.66-5.104-29.008-13.725-40.052-26.095-7.168-8.03-13.15-16.693-16.691-26.837C5.116 131.865 3.196 124.385 1 117c0-8.688 0-17.375.355-26.717 1.13-4.469 1.628-8.366 2.728-12.086 6.479-21.907 19.268-39.265 38.08-52.203 2.51 1.717 5.019 3.433 7.383 5.575-30.41 20.59-44.012 48.785-39.336 84.869 2.798 21.586 13.24 39.478 30.59 53.03 20.901 16.761 44.524 22.014 71.404 16.568 13.09-2.993 24.177-8.4 34.005-16.382"/><path fill="#2fbab5" d="M68.118 14.49c9.86-1.378 19.838-3.616 29.719-3.248 20.948.78 39.737 8.001 55.887 21.877 16.107 13.838 26.158 31.067 30.659 51.682.418 1.913.607 3.877 1.26 6.008.357 8.545.357 16.9 0 25.913-1.576 11.156-4.796 21.015-9.805 30.304-1.575-3.183-3.151-6.365-4.628-10.206 10.901-27.743 8.734-53.906-6.845-78.398-13.222-20.785-32.276-33.582-56.934-37.406-4.157-.42-8.314-.84-13.38-1.27-6.092.475-11.274.961-16.456 1.447-3.135-2.127-6.27-4.254-9.477-6.702"/><path fill="#f6d7fb" d="M40.903 169.058c-17.453-13.142-27.895-31.034-30.693-52.62-4.676-36.084 8.926-64.278 39.513-84.602 16.12 13.411 29.693 28.81 39.196 47.49.848 1.667.651 3.865.94 5.817-2.018-.343-4.083-.52-6.04-1.077-1.902-.541-3.654-1.596-5.543-2.208-7.533-2.44-15.093-4.797-22.886-7.26-4.652 5.624-5.37 13.792-1.469 20.82 3.399 6.124 10.007 9.121 17.862 8.319 1.3-.133 2.683.544 4.027.847-.368 1.488-.23 3.568-1.179 4.378-15.416 13.172-22.424 31.486-30.3 49.25-1.472 3.317-2.234 6.95-3.428 10.846M107.554 21.37c24.535 3.47 43.59 16.267 56.81 37.052 15.58 24.492 17.747 50.655 6.757 78.038-5.68-8.795-11.109-17.926-16.686-26.965-4.885-7.918-9.942-15.73-14.906-23.6-.44-.698-.858-1.442-1.11-2.222-7.202-22.163-18.5-42.29-30.865-62.304m38.417 148.048c-9.59 8.219-20.676 13.626-33.379 16.475 1.443-6.684 2.824-13.516 5.186-19.99 2.557-7.009 6.09-8.239 12.762-5.034 5.196 2.497 10.138 5.523 15.431 8.55M77.807 21.47c4.97-.763 10.152-1.25 15.796-1.648 1.636 5.854 2.81 11.62 4.183 18.363-7.136-5.935-13.452-11.187-19.98-16.715m47.639 91.915c1.821 2.305 3.355 4.369 4.889 6.433l-1.141 1.797c-3.72-1.616-7.55-3.029-11.091-4.97-1.113-.609-1.448-2.638-2.14-4.017 1.772-.544 3.546-1.505 5.313-1.492 1.299.009 2.589 1.292 4.17 2.249"/></svg>